<svg xmlns="http://www.w3.org/2000/svg" viewBox="0 0 512 512">
  <defs>
    <radialGradient id="ctBody" cx="0.45" cy="0.25" r="1">
      <stop offset="0" stop-color="#c6cfe2"/>
      <stop offset="1" stop-color="#96a1bd"/>
    </radialGradient>
  </defs>

  <!-- 地面の影 -->
  <ellipse cx="256" cy="468" rx="118" ry="18" fill="#0a0f18" opacity="0.22"/>

  <!-- 耳 -->
  <path d="M170 128 L152 42 L246 84 Z" fill="#a8b2c8" stroke="#4a4a63" stroke-width="10" stroke-linejoin="round"/>
  <path d="M342 128 L360 42 L266 84 Z" fill="#a8b2c8" stroke="#4a4a63" stroke-width="10" stroke-linejoin="round"/>
  <path d="M182 110 L170 62 L234 88 Z" fill="#f3b1c6"/>
  <path d="M330 110 L342 62 L278 88 Z" fill="#f3b1c6"/>

  <!-- しっぽ -->
  <path d="M376 396 C 448 388 462 328 430 308" fill="none" stroke="#4a4a63" stroke-width="38" stroke-linecap="round"/>
  <path d="M376 396 C 448 388 462 328 430 308" fill="none" stroke="#a8b2c8" stroke-width="18" stroke-linecap="round"/>

  <!-- まんまるボディ（頭と一体） -->
  <path d="M256 86 C 175 86 138 172 134 262 C 130 356 184 442 256 442 C 328 442 382 356 378 262 C 374 172 337 86 256 86 Z"
        fill="url(#ctBody)" stroke="#4a4a63" stroke-width="10"/>

  <!-- 頭のしま模様 -->
  <g stroke="#7d86a0" stroke-width="8" stroke-linecap="round">
    <path d="M222 112 L218 142"/><path d="M256 104 L256 136"/><path d="M290 112 L294 142"/>
  </g>

  <!-- おなか -->
  <ellipse cx="256" cy="358" rx="90" ry="76" fill="#f2ecdf"/>

  <!-- 短い手 -->
  <ellipse cx="158" cy="330" rx="25" ry="38" fill="#a8b2c8" stroke="#4a4a63" stroke-width="9" transform="rotate(18 158 330)"/>
  <ellipse cx="354" cy="330" rx="25" ry="38" fill="#a8b2c8" stroke="#4a4a63" stroke-width="9" transform="rotate(-18 354 330)"/>

  <!-- あんよ -->
  <ellipse cx="198" cy="428" rx="35" ry="17" fill="#f2ecdf" stroke="#4a4a63" stroke-width="8"/>
  <ellipse cx="314" cy="428" rx="35" ry="17" fill="#f2ecdf" stroke="#4a4a63" stroke-width="8"/>

  <!-- ひざの上の小さな本 -->
  <path d="M204 378 L254 370 L254 414 L204 420 Z" fill="#a4744c" stroke="#4a4a63" stroke-width="8" stroke-linejoin="round"/>
  <path d="M308 378 L258 370 L258 414 L308 420 Z" fill="#a4744c" stroke="#4a4a63" stroke-width="8" stroke-linejoin="round"/>
  <g stroke="#ecd9ae" stroke-width="4" stroke-linecap="round">
    <path d="M214 388 L244 383"/><path d="M214 400 L244 395"/>
    <path d="M298 388 L268 383"/><path d="M298 400 L268 395"/>
  </g>

  <!-- うるうるの瞳 -->
  <ellipse cx="194" cy="222" rx="27" ry="33" fill="#322d3d"/>
  <ellipse cx="318" cy="222" rx="27" ry="33" fill="#322d3d"/>
  <circle cx="185" cy="210" r="10" fill="#fff"/>
  <circle cx="309" cy="210" r="10" fill="#fff"/>
  <circle cx="202" cy="231" r="4.5" fill="#fff" opacity="0.9"/>
  <circle cx="326" cy="231" r="4.5" fill="#fff" opacity="0.9"/>
  <circle cx="195" cy="239" r="6" fill="#56d99a" opacity="0.8"/>
  <circle cx="319" cy="239" r="6" fill="#56d99a" opacity="0.8"/>

  <!-- 鼻と口 -->
  <path d="M248 270 Q256 264 264 270 Q256 280 248 270 Z" fill="#f3a0b8"/>
  <path d="M238 288 Q247 296 256 285 Q265 296 274 288" fill="none" stroke="#4a4a63" stroke-width="6" stroke-linecap="round"/>

  <!-- ほっぺ -->
  <ellipse cx="148" cy="272" rx="20" ry="13" fill="#ffa9bd" opacity="0.6"/>
  <ellipse cx="364" cy="272" rx="20" ry="13" fill="#ffa9bd" opacity="0.6"/>
</svg>
