<svg xmlns="http://www.w3.org/2000/svg" viewBox="0 0 512 512">
  <defs>
    <radialGradient id="owBody" cx="0.45" cy="0.25" r="1">
      <stop offset="0" stop-color="#bc9060"/>
      <stop offset="1" stop-color="#85603a"/>
    </radialGradient>
  </defs>

  <!-- 地面の影 -->
  <ellipse cx="256" cy="468" rx="124" ry="18" fill="#0a0f18" opacity="0.22"/>

  <!-- 耳の羽 -->
  <path d="M168 110 Q150 48 162 38 Q186 40 212 86 Z" fill="#85603a" stroke="#57422c" stroke-width="9" stroke-linejoin="round"/>
  <path d="M344 110 Q362 48 350 38 Q326 40 300 86 Z" fill="#85603a" stroke="#57422c" stroke-width="9" stroke-linejoin="round"/>

  <!-- まんまるボディ -->
  <path d="M256 84 C 160 84 116 176 112 268 C 108 360 172 446 256 446 C 340 446 404 360 400 268 C 396 176 352 84 256 84 Z"
        fill="url(#owBody)" stroke="#57422c" stroke-width="10"/>

  <!-- 顔のクリーム色のお面 -->
  <ellipse cx="256" cy="232" rx="118" ry="100" fill="#f3e6c8"/>

  <!-- おなかの羽模様 -->
  <path d="M216 362 Q236 378 256 362 Q276 378 296 362" fill="none" stroke="#9c7344" stroke-width="6" stroke-linecap="round"/>
  <path d="M228 396 Q246 410 264 396" fill="none" stroke="#9c7344" stroke-width="6" stroke-linecap="round"/>

  <!-- 翼 -->
  <ellipse cx="128" cy="318" rx="38" ry="84" fill="#7a5430" stroke="#57422c" stroke-width="9" transform="rotate(16 128 318)"/>
  <ellipse cx="384" cy="318" rx="38" ry="84" fill="#7a5430" stroke="#57422c" stroke-width="9" transform="rotate(-16 384 318)"/>

  <!-- 小さな本 -->
  <path d="M312 358 L398 342 L404 386 L318 404 Z" fill="#cfa86a" stroke="#57422c" stroke-width="8" stroke-linejoin="round"/>
  <g stroke="#8a6a3c" stroke-width="5" stroke-linecap="round">
    <path d="M330 372 L386 360"/><path d="M334 388 L390 376"/>
  </g>

  <!-- うるうるの瞳 -->
  <ellipse cx="204" cy="226" rx="28" ry="34" fill="#352b22"/>
  <ellipse cx="308" cy="226" rx="28" ry="34" fill="#352b22"/>
  <circle cx="195" cy="214" r="10" fill="#fff"/>
  <circle cx="299" cy="214" r="10" fill="#fff"/>
  <circle cx="212" cy="235" r="4.5" fill="#fff" opacity="0.9"/>
  <circle cx="316" cy="235" r="4.5" fill="#fff" opacity="0.9"/>
  <circle cx="205" cy="243" r="6" fill="#f0b04a" opacity="0.8"/>
  <circle cx="309" cy="243" r="6" fill="#f0b04a" opacity="0.8"/>

  <!-- まるめがね -->
  <circle cx="204" cy="226" r="48" fill="none" stroke="#3f6b96" stroke-width="7"/>
  <circle cx="308" cy="226" r="48" fill="none" stroke="#3f6b96" stroke-width="7"/>
  <path d="M252 222 Q256 216 260 222" fill="none" stroke="#3f6b96" stroke-width="7" stroke-linecap="round"/>

  <!-- くちばし -->
  <path d="M242 282 Q256 274 270 282 Q256 304 242 282 Z" fill="#f0a23c" stroke="#57422c" stroke-width="7" stroke-linejoin="round"/>

  <!-- ほっぺ -->
  <ellipse cx="158" cy="282" rx="18" ry="11" fill="#ff9e8a" opacity="0.55"/>
  <ellipse cx="354" cy="282" rx="18" ry="11" fill="#ff9e8a" opacity="0.55"/>

  <!-- あんよ -->
  <ellipse cx="212" cy="444" rx="24" ry="12" fill="#f0a23c" stroke="#57422c" stroke-width="7"/>
  <ellipse cx="300" cy="444" rx="24" ry="12" fill="#f0a23c" stroke="#57422c" stroke-width="7"/>
</svg>
